<svg height="512" viewBox="0 0 64 64" width="512" xmlns="http://www.w3.org/2000/svg"><g id="Productivity-Gear-Setting-Setting-Management"><path d="m57.65 20.84a11.92 11.92 0 0 1 -1.41 3.39l1.78 2.96-2.83 2.83-2.96-1.78a11.92 11.92 0 0 1 -3.39 1.41l-.84 3.35h-4l-.84-3.35a11.92 11.92 0 0 1 -3.39-1.41l-2.96 1.78-1.15-1.15-1.68-1.68 1.78-2.96a11.92 11.92 0 0 1 -1.41-3.39l-2.22-.56-1.13-.28v-4l3.35-.84a11.92 11.92 0 0 1 1.41-3.39l-1.78-2.96 2.83-2.83 2.96 1.78a11.92 11.92 0 0 1 3.39-1.41l.84-3.35h4l.84 3.35a11.92 11.92 0 0 1 3.39 1.41l2.96-1.78 2.83 2.83-1.78 2.96a11.92 11.92 0 0 1 1.41 3.39l3.35.84v4z" fill="#ee8700"/><path d="m36.51 38.75a15.082 15.082 0 0 1 -1.6 3.86l2.65 3.7-4.25 4.25-3.7-2.65a15.082 15.082 0 0 1 -3.86 1.6l-.75 4.49h-6l-.75-4.49a15.082 15.082 0 0 1 -3.86-1.6l-3.7 2.65-4.25-4.25 2.65-3.7a15.082 15.082 0 0 1 -1.6-3.86l-4.49-.75v-6l4.49-.75a15.082 15.082 0 0 1 1.6-3.86l-2.65-3.7 4.25-4.25 3.7 2.65a15.082 15.082 0 0 1 3.86-1.6l.75-4.49h6l.75 4.49a15.082 15.082 0 0 1 3.86 1.6l2.52-1.81 1.18-.84 4.25 4.25-2.65 3.7a12.85 12.85 0 0 1 .75 1.48 13.789 13.789 0 0 1 .85 2.38l4.49.75v6z" fill="#ff9811"/><path d="m29.78 42.78a9.674 9.674 0 0 1 -.97.85 11 11 0 0 1 -13.62 0 9.674 9.674 0 0 1 -.97-.85 11 11 0 1 1 15.56 0z" fill="#ffd422"/><path d="m54 18a7.973 7.973 0 0 1 -3.58 6.66 7.968 7.968 0 0 1 -8.83.01 8 8 0 1 1 12.41-6.67z" fill="#ffd422"/><path d="m57.59 51.68a8.938 8.938 0 0 1 -.62 1.5l1.93 2.89-2.83 2.83-2.89-1.93a8.938 8.938 0 0 1 -1.5.62l-.68 3.41h-4l-.68-3.41a8.938 8.938 0 0 1 -1.5-.62l-2.89 1.93-2.83-2.83 1.93-2.89a8.938 8.938 0 0 1 -.62-1.5l-3.41-.68v-4l3.41-.68a8.938 8.938 0 0 1 .62-1.5l-1.93-2.89 2.83-2.83 2.89 1.93a8.938 8.938 0 0 1 1.5-.62l.68-3.41h4l.68 3.41a8.938 8.938 0 0 1 1.5.62l2.89-1.93 2.83 2.83-1.93 2.89a8.938 8.938 0 0 1 .62 1.5l3.41.68v4z" fill="#ff9811"/><circle cx="49" cy="49" fill="#ffd422" r="5"/><path d="m49.54 23.46a4.949 4.949 0 0 1 .88 1.2 7.968 7.968 0 0 1 -8.83.01 4.963 4.963 0 0 1 4.41-2.67 5.022 5.022 0 0 1 3.54 1.46z" fill="#3d9ae2"/><path d="m49 17v1h-1.17a2.006 2.006 0 0 1 -1.42-.59l-.41-.41-.41.41a2.006 2.006 0 0 1 -1.42.59h-1.17v-1a3 3 0 0 1 6 0z" fill="#57565c"/><path d="m27.79 42.89a3.757 3.757 0 0 1 1.02.74 11 11 0 0 1 -13.62 0 3.757 3.757 0 0 1 1.02-.74l1.5-.75 2.29-1.14 2 2 2-2 2.29 1.14z" fill="#3d9ae2"/><path d="m47.83 18a2.006 2.006 0 0 1 -1.42-.59l-.41-.41-.41.41a2.006 2.006 0 0 1 -1.42.59h-1.17v1a3 3 0 0 0 6 0v-1z" fill="#ffc477"/><path d="m24 38v3l-2 2-2-2v-3z" fill="#ffc477"/><path d="m24 38v1.46a3.974 3.974 0 0 1 -4 0v-1.46z" fill="#ffb655"/><path d="m26 34v1a4 4 0 0 1 -8 0v-1h.51a5.993 5.993 0 0 0 4.25-1.76l.24-.24.45.89a1.989 1.989 0 0 0 1.79 1.11z" fill="#ffc477"/><path d="m26 32v2h-.76a1.989 1.989 0 0 1 -1.79-1.11l-.45-.89-.24.24a5.993 5.993 0 0 1 -4.25 1.76h-.51v-2a4 4 0 0 1 8 0z" fill="#57565c"/></g></svg>